<mxfile host="app.diagrams.net" agent="Mozilla/5.0 (Windows NT 10.0; Win64; x64) AppleWebKit/537.36 (KHTML, like Gecko) Chrome/136.0.0.0 Safari/537.36" version="27.0.6">
  <diagram name="Page-1" id="ovowj5iI4iiNtHoc4OgP">
    <mxGraphModel dx="1209" dy="694" grid="1" gridSize="15" guides="0" tooltips="1" connect="1" arrows="1" fold="1" page="1" pageScale="1" pageWidth="850" pageHeight="1100" math="0" shadow="1">
      <root>
        <mxCell id="0" />
        <mxCell id="1" parent="0" />
        <mxCell id="uGluHOFMrYeOh34jZ36u-1" value="Nasabah" style="rounded=0;whiteSpace=wrap;html=1;movable=0;resizable=0;rotatable=0;deletable=0;editable=0;locked=1;connectable=0;" vertex="1" parent="1">
          <mxGeometry x="50" y="60" width="160" height="80" as="geometry" />
        </mxCell>
        <mxCell id="uGluHOFMrYeOh34jZ36u-2" value="Petugas Bank" style="rounded=0;whiteSpace=wrap;html=1;movable=0;resizable=0;rotatable=0;deletable=0;editable=0;locked=1;connectable=0;" vertex="1" parent="1">
          <mxGeometry x="50" y="480" width="160" height="80" as="geometry" />
        </mxCell>
        <mxCell id="uGluHOFMrYeOh34jZ36u-3" value="Pengelolaan&lt;div&gt;Data&lt;/div&gt;&lt;div&gt;Nasabah&lt;/div&gt;" style="ellipse;whiteSpace=wrap;html=1;aspect=fixed;movable=0;resizable=0;rotatable=0;deletable=0;editable=0;locked=1;connectable=0;" vertex="1" parent="1">
          <mxGeometry x="520" y="50" width="100" height="100" as="geometry" />
        </mxCell>
        <mxCell id="uGluHOFMrYeOh34jZ36u-4" value="Menejemen&lt;div&gt;Laporan &amp;amp;&lt;/div&gt;&lt;div&gt;Rekening&lt;/div&gt;" style="ellipse;whiteSpace=wrap;html=1;aspect=fixed;movable=0;resizable=0;rotatable=0;deletable=0;editable=0;locked=1;connectable=0;" vertex="1" parent="1">
          <mxGeometry x="520" y="360" width="100" height="100" as="geometry" />
        </mxCell>
        <mxCell id="uGluHOFMrYeOh34jZ36u-5" value="Pengelolaan&amp;nbsp;&lt;div&gt;Transaksi&lt;/div&gt;" style="ellipse;whiteSpace=wrap;html=1;aspect=fixed;movable=0;resizable=0;rotatable=0;deletable=0;editable=0;locked=1;connectable=0;" vertex="1" parent="1">
          <mxGeometry x="310" y="180" width="100" height="100" as="geometry" />
        </mxCell>
        <mxCell id="uGluHOFMrYeOh34jZ36u-8" value="Bukti&lt;div&gt;Transaksi&lt;/div&gt;" style="endArrow=classic;html=1;rounded=0;movable=1;resizable=1;rotatable=1;deletable=1;editable=1;locked=0;connectable=1;" edge="1" parent="1">
          <mxGeometry width="50" height="50" relative="1" as="geometry">
            <mxPoint x="570" y="160" as="sourcePoint" />
            <mxPoint x="570" y="330" as="targetPoint" />
          </mxGeometry>
        </mxCell>
        <mxCell id="uGluHOFMrYeOh34jZ36u-9" value="lapran&lt;div&gt;transaksi&lt;/div&gt;" style="endArrow=classic;html=1;rounded=0;movable=0;resizable=0;rotatable=0;deletable=0;editable=0;locked=1;connectable=0;" edge="1" parent="1">
          <mxGeometry width="50" height="50" relative="1" as="geometry">
            <mxPoint x="410" y="290" as="sourcePoint" />
            <mxPoint x="500" y="370" as="targetPoint" />
          </mxGeometry>
        </mxCell>
        <mxCell id="uGluHOFMrYeOh34jZ36u-10" value="informasi&lt;div&gt;akun&lt;/div&gt;" style="endArrow=classic;html=1;rounded=0;movable=0;resizable=0;rotatable=0;deletable=0;editable=0;locked=1;connectable=0;" edge="1" parent="1">
          <mxGeometry width="50" height="50" relative="1" as="geometry">
            <mxPoint x="530" y="140" as="sourcePoint" />
            <mxPoint x="420" y="200" as="targetPoint" />
          </mxGeometry>
        </mxCell>
        <mxCell id="uGluHOFMrYeOh34jZ36u-11" value="Data Rekening" style="rounded=1;whiteSpace=wrap;html=1;movable=0;resizable=0;rotatable=0;deletable=0;editable=0;locked=1;connectable=0;" vertex="1" parent="1">
          <mxGeometry x="290" y="480" width="140" height="70" as="geometry" />
        </mxCell>
        <mxCell id="uGluHOFMrYeOh34jZ36u-12" value="Validasi&lt;div&gt;transaksi&lt;/div&gt;" style="endArrow=classic;html=1;rounded=0;movable=0;resizable=0;rotatable=0;deletable=0;editable=0;locked=1;connectable=0;" edge="1" parent="1">
          <mxGeometry width="50" height="50" relative="1" as="geometry">
            <mxPoint x="380" y="290" as="sourcePoint" />
            <mxPoint x="380" y="460" as="targetPoint" />
          </mxGeometry>
        </mxCell>
        <mxCell id="uGluHOFMrYeOh34jZ36u-13" value="saldo/&lt;div&gt;tarik/&lt;/div&gt;&lt;div&gt;transfer&lt;/div&gt;" style="endArrow=classic;html=1;rounded=0;movable=0;resizable=0;rotatable=0;deletable=0;editable=0;locked=1;connectable=0;" edge="1" parent="1">
          <mxGeometry width="50" height="50" relative="1" as="geometry">
            <mxPoint x="340" y="290" as="sourcePoint" />
            <mxPoint x="340" y="460" as="targetPoint" />
          </mxGeometry>
        </mxCell>
        <mxCell id="uGluHOFMrYeOh34jZ36u-14" value="Data Nasabah" style="rounded=1;whiteSpace=wrap;html=1;movable=0;resizable=0;rotatable=0;deletable=0;editable=0;locked=1;connectable=0;" vertex="1" parent="1">
          <mxGeometry x="780" y="50" width="140" height="70" as="geometry" />
        </mxCell>
        <mxCell id="uGluHOFMrYeOh34jZ36u-15" value="Data Rekening" style="rounded=1;whiteSpace=wrap;html=1;movable=0;resizable=0;rotatable=0;deletable=0;editable=0;locked=1;connectable=0;" vertex="1" parent="1">
          <mxGeometry x="780" y="240" width="140" height="70" as="geometry" />
        </mxCell>
        <mxCell id="uGluHOFMrYeOh34jZ36u-16" value="Data Transaksi" style="rounded=1;whiteSpace=wrap;html=1;movable=0;resizable=0;rotatable=0;deletable=0;editable=0;locked=1;connectable=0;" vertex="1" parent="1">
          <mxGeometry x="780" y="485" width="140" height="70" as="geometry" />
        </mxCell>
        <mxCell id="uGluHOFMrYeOh34jZ36u-17" value="setor/&lt;div&gt;tarik/&lt;/div&gt;&lt;div&gt;transfer&lt;/div&gt;" style="endArrow=classic;html=1;rounded=0;movable=0;resizable=0;rotatable=0;deletable=0;editable=0;locked=1;connectable=0;" edge="1" parent="1">
          <mxGeometry width="50" height="50" relative="1" as="geometry">
            <mxPoint x="650" y="90" as="sourcePoint" />
            <mxPoint x="770" y="90" as="targetPoint" />
          </mxGeometry>
        </mxCell>
        <mxCell id="uGluHOFMrYeOh34jZ36u-18" value="Laporan&amp;nbsp;&lt;div&gt;Transaksi&lt;/div&gt;" style="endArrow=classic;html=1;rounded=0;movable=0;resizable=0;rotatable=0;deletable=0;editable=0;locked=1;connectable=0;" edge="1" parent="1">
          <mxGeometry width="50" height="50" relative="1" as="geometry">
            <mxPoint x="850" y="130" as="sourcePoint" />
            <mxPoint x="850" y="220" as="targetPoint" />
          </mxGeometry>
        </mxCell>
        <mxCell id="uGluHOFMrYeOh34jZ36u-19" value="Menejemen&amp;nbsp;&lt;div&gt;Laporan &amp;amp; Rekening&lt;/div&gt;" style="endArrow=classic;html=1;rounded=0;movable=0;resizable=0;rotatable=0;deletable=0;editable=0;locked=1;connectable=0;" edge="1" parent="1">
          <mxGeometry width="50" height="50" relative="1" as="geometry">
            <mxPoint x="850" y="330" as="sourcePoint" />
            <mxPoint x="850" y="460" as="targetPoint" />
          </mxGeometry>
        </mxCell>
        <mxCell id="uGluHOFMrYeOh34jZ36u-20" value="Laporan Transaksi" style="endArrow=classic;html=1;rounded=0;movable=0;resizable=0;rotatable=0;deletable=0;editable=0;locked=1;connectable=0;" edge="1" parent="1">
          <mxGeometry width="50" height="50" relative="1" as="geometry">
            <mxPoint x="770" y="510" as="sourcePoint" />
            <mxPoint x="450" y="510" as="targetPoint" />
          </mxGeometry>
        </mxCell>
        <mxCell id="uGluHOFMrYeOh34jZ36u-21" value="Menejemen&amp;nbsp;&lt;div&gt;Laporan &amp;amp; Rekening&lt;/div&gt;" style="endArrow=classic;html=1;rounded=0;movable=0;resizable=0;rotatable=0;deletable=0;editable=0;locked=1;connectable=0;" edge="1" parent="1">
          <mxGeometry width="50" height="50" relative="1" as="geometry">
            <mxPoint x="640" y="410" as="sourcePoint" />
            <mxPoint x="820" y="460" as="targetPoint" />
          </mxGeometry>
        </mxCell>
        <mxCell id="uGluHOFMrYeOh34jZ36u-23" value="" style="shape=flexArrow;endArrow=classic;html=1;rounded=0;" edge="1" parent="1">
          <mxGeometry width="50" height="50" relative="1" as="geometry">
            <mxPoint x="120" y="150" as="sourcePoint" />
            <mxPoint x="120" y="465" as="targetPoint" />
          </mxGeometry>
        </mxCell>
        <mxCell id="uGluHOFMrYeOh34jZ36u-24" value="" style="shape=flexArrow;endArrow=classic;html=1;rounded=0;" edge="1" parent="1">
          <mxGeometry width="50" height="50" relative="1" as="geometry">
            <mxPoint x="240" y="90" as="sourcePoint" />
            <mxPoint x="510" y="90" as="targetPoint" />
          </mxGeometry>
        </mxCell>
      </root>
    </mxGraphModel>
  </diagram>
</mxfile>
